<svg width="300" height="300" xmlns="http://www.w3.org/2000/svg">
 <defs>
  <style>.cls-2{fill:#de8e68;}.cls-3{fill:#00bfa5;}.cls-4{fill:#1de9b6;}.cls-5{fill:#d37c59;}.cls-6{fill:#ffc107;}.cls-7{fill:#ffe082;}.cls-8{fill:#dc8e6c;}.cls-9{fill:#1a237e;}.cls-10{fill:#651fff;}.cls-11{fill:#3350b8;}.cls-12{fill:#ffc000;}.cls-13{fill:#009c49;}.cls-14{fill:#fff;}</style>
 </defs>
 <title>ilustras mobills 2019</title>
 <g>
  <title>background</title>
  <rect fill="none" id="canvas_background" height="302" width="302" y="-1" x="-1"/>
 </g>
 <g>
  <title>Layer 1</title>
  <g id="Grupo_2158">
   <g id="error-404-colour">
    <g id="vector">
     <rect height="5.21" width="6.15" y="282.790787" x="194.995186" class="cls-2" id="Retângulo_1787"/>
     <path d="m201.725186,287.180787l0,5.21l-14.64,0l0,-1.89l7.61,-3.32l7.03,0z" id="Caminho_464"/>
     <rect height="5.21" width="6.15" y="218.870787" x="99.325186" class="cls-2" id="Retângulo_1788"/>
     <path d="m106.065186,223.260787l0,5.21l-14.64,0l0,-1.89l7.61,-3.32l7.03,0z" id="Caminho_465"/>
     <path d="m194.785186,153.580787c0.3,3 6.84,130.58 6.84,130.58l-6.84,0l-33.31,-120.16l33.31,-10.42z" class="cls-3" id="Caminho_466"/>
     <path d="m198.295186,139.520787c0,17.33 -6.37,32.93 -19.27,32.93c-17.71,0 -41.15,-11.29 -47.6,-17.66c-1.61,4.76 -24.45,64.73 -24.45,64.73l-9.46,0s6.07,-69.86 17.42,-87.74c3.74,-5 34.24,-3.74 49.65,0s33.71,7.74 33.71,7.74z" class="cls-4" id="Caminho_467"/>
     <path d="m152.585186,38.540787a2.23,2.23 0 0 1 2.37,-1.78c1.39,0.1 3.65,3.76 3.65,6.72s-0.84,4.08 -0.58,6.23s5.73,31.34 5.73,33.12a57.69,57.69 0 0 0 6.33,-0.59l-3.5,13.95l-10.07,0l-6.52,-56.17l2.59,-1.48z" class="cls-5" id="Caminho_468"/>
     <path d="m162.225186,43.510787l-2.12,8.58s-21,-2.43 -23.24,-3s1.15,-14.75 3.5,-14.17s21.86,8.59 21.86,8.59z" id="Caminho_469"/>
     <path d="m181.425186,68.900787c26.8,0 20.19,69.25 17.06,71.84s-36.45,-6.15 -39.22,-10s2.5,-61.84 22.16,-61.84z" class="cls-6" id="Caminho_470"/>
     <path d="m171.855186,86.480787c-1.47,0.5 -10.11,3.87 -10.11,3.87c-0.16,-1.69 -6.78,-36.18 -7.16,-38.29a17.28,17.28 0 0 0 1.22,-6.62c0,-5.66 -2.3,-10.25 -5.13,-10.25s-5.13,4.59 -5.13,10.24a17,17 0 0 0 1.34,6.9c-0.32,4.31 -3.17,45.19 2.66,51c6.15,6.15 21.1,0.6 30.19,-3.53c1.92,-0.65 -0.73,-15.25 -7.88,-13.32z" class="cls-2" id="Caminho_471"/>
     <rect transform="rotate(-75.12000274658203 -55.58481597900392,262.1107177734375) " height="5.61" width="3.92" y="414.880799" x="205.105188" id="Retângulo_1789"/>
     <path d="m198.505186,81.660787c4.09,7.93 -12.09,22.22 -16.57,21.16s-11.69,-17 -10.34,-19.9s22.99,-9.02 26.91,-1.26z" class="cls-7" id="Caminho_472"/>
     <path d="m183.065186,75.660787c0,1.34 -8.19,1.68 -8.19,0l0,-15.51l8.19,0l0,15.51z" class="cls-5" id="Caminho_473"/>
     <ellipse ry="17.28" rx="10.69" cy="51.840787" cx="176.015186" class="cls-8" id="Elipse_344"/>
     <path d="m168.005186,40.390787a7,7 0 0 0 3.17,6.33c3.19,2.17 5.46,1.22 7.8,3.26c1.23,1.23 4.25,3.62 4.28,7.3c0,2.73 0.89,4.1 1.68,4.1s2.85,-0.54 4.19,-0.54c13.07,0 28.43,13.5 57.89,13.5c15.39,0 39.53,-3.88 39.53,-26.48c0,-12.21 -4.39,-26.95 -27.61,-26.95c-14.74,0 -25.07,7.23 -37.18,7.23c-15.56,0 -21.56,-5.63 -32.31,-5.63c-7.66,0 -24.89,4.44 -24.89,16.06c0,4.41 1.39,5.69 1.81,5.92a26.36,26.36 0 0 1 1.64,-4.1z" class="cls-9" id="Caminho_474"/>
     <circle r="2.73" cy="55.940787" cx="182.155186" class="cls-8" id="Elipse_345"/>
    </g>
   </g>
   <g id="revenue-graph-colour">
    <rect height="42.76" width="35.97" y="249.900787" x="131.955186" class="cls-10" id="Retângulo_1791"/>
    <path d="m81.805186,227.880787l36,0l0,64.78l-36,0l0,-64.78z" class="cls-10" id="Caminho_475"/>
    <rect height="80.85" width="35.97" y="211.810787" x="31.675186" class="cls-10" id="Retângulo_1793"/>
    <rect height="3.06" width="4.18" y="227.880787" x="100.525186" class="cls-10" id="Retângulo_1794"/>
   </g>
  </g>
  <rect id="svg_9" transform="rotate(-90 13.134986877441522,720.2049560546876) " height="20.85" width="4.85" y="709.77999" x="10.709985" class="cls-14"/>
  <rect id="svg_10" transform="rotate(-90 2.4249954223633954,738.6149902343751) " height="20.85" width="4.85" y="728.190002" x="-0.000006" class="cls-14"/>
 </g>
</svg>
